# xmcd
# Track frame offsets:
# 150
# 13527
# 25199
# 39220
# 52987
# 64787
# 78208
# 94164
# 103965
# 117416
# 128125
# 139649
#
# Disc length: 2062 seconds
# Revision: 0
# Processed by: cddbd v1.4PL0 Copyright (c) Steve Scherf et al.
# Submitted via: VisiTrax 2.9.5.180 - For more info visit www.synapsa.com
#
DISCID=94080c0c
DTITLE=Joe Paul Nichols - The Old Country Church
DYEAR=1900
DGENRE=Gospel
TTITLE0=The old country church
TTITLE1=I saw the light
TTITLE2=Family bible
TTITLE3=One day at a time
TTITLE4=Brush arbors
TTITLE5=Amazing grace
TTITLE6=How great thou art
TTITLE7=Tagging along
TTITLE8=Peace in the valley
TTITLE9=I'll fly away
TTITLE10=Will the circle be unbroken
TTITLE11=Mansion over the hilltop
EXTD=
EXTT0=
EXTT1=
EXTT2=
EXTT3=
EXTT4=
EXTT5=
EXTT6=
EXTT7=
EXTT8=
EXTT9=
EXTT10=
EXTT11=
PLAYORDER=
